<?xml version="1.0" encoding="UTF-8" standalone="no"?>
<!-- Created with Inkscape (http://www.inkscape.org/) -->

<svg
   width="28.679239mm"
   height="21.135916mm"
   viewBox="0 0 28.679239 21.135916"
   version="1.1"
   id="svg1"
   xml:space="preserve"
   xmlns="http://www.w3.org/2000/svg"
   xmlns:svg="http://www.w3.org/2000/svg"><defs
     id="defs1" /><g
     id="layer2"
     transform="translate(-102.34092,-48.886861)"><g
       id="g7"
       transform="matrix(0.22789304,0,0,0.22789304,93.610504,43.711743)"><g
         id="g5"
         transform="translate(-17.562859,0.33155908)"><path
           style="fill:#000000;stroke-width:0.264583"
           d="M 117.23293,115.12189 116.52925,107.80363 99.781692,86.411788 V 65.723626 l -43.909575,-43.346632 5.910906,21.110372 29.976727,25.613918 1.548093,17.16977 z"
           id="path2" /><path
           style="fill:#000000;stroke-width:0.264583"
           d="M 90.07092,83.597074 88.804299,71.493794 65.864361,52.916666 70.367908,64.59774 Z"
           id="path3" /><path
           style="fill:#000000;stroke-width:0.264583"
           d="m 102.96287,69.395296 3.33865,9.089305 5.34796,5.06649 2.39251,16.606829 -11.11813,-14.777264 z"
           id="path4" /><path
           style="display:inline;fill:#000000;stroke-width:0.264583"
           d="M 118.49956,83.737809 V 32.932182 l -4.08134,3.940601 3.23692,30.398936 -2.53325,-15.621674 c 0,0 -6.19237,1.688827 -8.86635,5.488696 -2.67398,3.799867 -2.81472,6.333112 -2.81472,6.333112 l -0.56294,5.629431 13.08843,8.866357 z"
           id="path5" /></g><g
         id="g6"
         transform="translate(-17.106681,0.22808908)"><path
           style="fill:#000000;stroke-width:0.264583"
           d="M 119.90032,115.22536 120.604,107.9071 137.35156,86.515253 V 65.827091 l 43.90957,-43.346632 -5.91091,21.110372 -29.97672,25.613918 -1.5481,17.16977 z"
           id="path2-1" /><path
           style="fill:#000000;stroke-width:0.264583"
           d="m 147.06233,83.700539 1.26662,-12.10328 22.93994,-18.577128 -4.50355,11.681074 z"
           id="path3-5" /><path
           style="fill:#000000;stroke-width:0.264583"
           d="m 134.17038,69.498761 -3.33865,9.089305 -5.34796,5.06649 -2.39251,16.606834 11.11813,-14.777269 z"
           id="path4-2" /><path
           style="fill:#000000;stroke-width:0.264583"
           d="M 118.63369,83.841274 V 33.035647 l 4.08134,3.940601 -3.23692,30.398936 2.53325,-15.621674 c 0,0 6.19237,1.688827 8.86635,5.488696 2.67398,3.799867 2.81472,6.333112 2.81472,6.333112 l 0.56294,5.629431 -13.08843,8.866357 z"
           id="path5-7" /></g></g></g></svg>
