<?xml version="1.0" encoding="UTF-8" standalone="no"?>
<!-- Created with Inkscape (http://www.inkscape.org/) -->

<svg
   width="75.380928mm"
   height="13.937134mm"
   viewBox="0 0 75.380928 13.937134"
   version="1.1"
   id="svg1"
   xml:space="preserve"
   xmlns="http://www.w3.org/2000/svg"
   xmlns:svg="http://www.w3.org/2000/svg"><defs
     id="defs1" /><g
     id="layer2"
     transform="translate(-43.107124,-264.60537)"><g
       id="g20-3-1-1-4"
       style="fill:#ffffff;fill-opacity:1;stroke:#ffffff"
       transform="matrix(0.49799891,0,0,0.49799891,53.688247,200.99333)"><g
         id="g7-3-5-1-2-9-4"
         transform="matrix(0.29898272,0,0,0.29898272,-32.622813,121.07866)"
         style="fill:#ffffff;fill-opacity:1;stroke:#ffffff"><g
           id="g5-2-9-2-5-6-1"
           transform="translate(-17.562859,0.33155908)"
           style="fill:#ffffff;fill-opacity:1;stroke:#ffffff"><path
             style="fill:#ffffff;fill-opacity:1;stroke:#ffffff;stroke-width:0.264583"
             d="M 117.23293,115.12189 116.52925,107.80363 99.781692,86.411788 V 65.723626 l -43.909575,-43.346632 5.910906,21.110372 29.976727,25.613918 1.548093,17.16977 z"
             id="path2-2-8-3-0-9-6" /><path
             style="fill:#ffffff;fill-opacity:1;stroke:#ffffff;stroke-width:0.264583"
             d="M 90.07092,83.597074 88.804299,71.493794 65.864361,52.916666 70.367908,64.59774 Z"
             id="path3-1-4-3-9-8-1" /><path
             style="fill:#ffffff;fill-opacity:1;stroke:#ffffff;stroke-width:0.264583"
             d="m 102.96287,69.395296 3.33865,9.089305 5.34796,5.06649 2.39251,16.606829 -11.11813,-14.777264 z"
             id="path4-6-0-4-4-2-6" /><path
             style="display:inline;fill:#ffffff;fill-opacity:1;stroke:#ffffff;stroke-width:0.264583"
             d="M 118.49956,83.737809 V 32.932182 l -4.08134,3.940601 3.23692,30.398936 -2.53325,-15.621674 c 0,0 -6.19237,1.688827 -8.86635,5.488696 -2.67398,3.799867 -2.81472,6.333112 -2.81472,6.333112 l -0.56294,5.629431 13.08843,8.866357 z"
             id="path5-8-7-1-7-5-3" /></g><g
           id="g6-5-6-1-8-5-3"
           transform="translate(-17.106681,0.22808908)"
           style="fill:#ffffff;fill-opacity:1;stroke:#ffffff"><path
             style="fill:#ffffff;fill-opacity:1;stroke:#ffffff;stroke-width:0.264583"
             d="M 119.90032,115.22536 120.604,107.9071 137.35156,86.515253 V 65.827091 l 43.90957,-43.346632 -5.91091,21.110372 -29.97672,25.613918 -1.5481,17.16977 z"
             id="path2-1-7-3-3-3-4-5" /><path
             style="fill:#ffffff;fill-opacity:1;stroke:#ffffff;stroke-width:0.264583"
             d="m 147.06233,83.700539 1.26662,-12.10328 22.93994,-18.577128 -4.50355,11.681074 z"
             id="path3-5-6-6-8-5-9-5" /><path
             style="fill:#ffffff;fill-opacity:1;stroke:#ffffff;stroke-width:0.264583"
             d="m 134.17038,69.498761 -3.33865,9.089305 -5.34796,5.06649 -2.39251,16.606834 11.11813,-14.777269 z"
             id="path4-2-1-1-7-1-1-3" /><path
             style="fill:#ffffff;fill-opacity:1;stroke:#ffffff;stroke-width:0.264583"
             d="M 118.63369,83.841274 V 33.035647 l 4.08134,3.940601 -3.23692,30.398936 2.53325,-15.621674 c 0,0 6.19237,1.688827 8.86635,5.488696 2.67398,3.799867 2.81472,6.333112 2.81472,6.333112 l 0.56294,5.629431 -13.08843,8.866357 z"
             id="path5-7-8-5-4-2-2-2" /></g></g></g><g
       id="g126-5-8"
       transform="translate(-39.667638,115.8491)"
       style="fill:#ffffff;stroke:#ffffff"><g
         id="g13-4-2-0-0-2"
         transform="matrix(0.31486649,0,0,0.31486649,100.43273,123.76587)"
         style="fill:#ffffff;stroke:#ffffff"><path
           d="M 25.549686,101.90109 16.421551,84.96774 h 2.42535 l 8.113897,15.43405 8.113897,-15.43405 h 2.392277 l -9.095061,16.93335 z"
           id="text4-2-7-1-83-5"
           style="font-size:22.5778px;font-family:Michroma;-inkscape-font-specification:Michroma;letter-spacing:2.64583px;word-spacing:0.0105833px;fill:#ffffff;stroke:#ffffff;stroke-width:0.264583"
           aria-label="V" /><path
           d="m 49.523625,84.96774 9.128135,16.93335 H 56.22641 L 48.112513,86.46704 39.998616,101.90109 H 37.606339 L 46.7014,84.96774 Z"
           id="text4-8-0-7-6-9-3"
           style="font-size:22.5778px;font-family:Michroma;-inkscape-font-specification:Michroma;letter-spacing:2.64583px;word-spacing:0.0105833px;fill:#ffffff;stroke:#ffffff;stroke-width:0.264583"
           aria-label="V" /><path
           d="m 173.97548,84.96774 9.12814,16.93335 h -2.42535 l -8.1139,-15.43405 -8.1139,15.43405 h -2.39227 l 9.09506,-16.93335 z"
           id="text4-8-2-9-9-4-3-6"
           style="font-size:22.5778px;font-family:Michroma;-inkscape-font-specification:Michroma;letter-spacing:2.64583px;word-spacing:0.0105833px;fill:#ffffff;stroke:#ffffff;stroke-width:0.264583"
           aria-label="V" /><path
           d="M 66.199464,101.90109 V 84.96774 h 2.116669 v 15.16946 h 13.405571 v 1.76389 z"
           id="text6-7-3-0-96-1"
           style="font-size:22.5778px;font-family:Michroma;-inkscape-font-specification:Michroma;letter-spacing:2.64583px;word-spacing:0.0105833px;fill:#ffffff;stroke:#ffffff;stroke-width:0.264583"
           aria-label="L" /><path
           d="M 89.269404,101.90109 V 84.96774 h 2.11668 v 7.40834 h 2.8112 l 10.947146,-7.40834 h 3.175 l -11.994446,8.29029 12.347226,8.64306 h -3.175 L 94.208314,94.13998 h -2.82223 v 7.76111 z"
           id="text8-3-1-6-7-8"
           style="font-size:22.5778px;font-family:Michroma;-inkscape-font-specification:Michroma;letter-spacing:2.64583px;word-spacing:0.0105833px;fill:#ffffff;stroke:#ffffff;stroke-width:0.264583"
           aria-label="K" /><path
           d="M 116.21993,101.90109 V 84.96774 h 2.11667 v 16.93335 z"
           id="text9-7-9-1-9-6"
           style="font-size:22.5778px;font-family:Michroma;-inkscape-font-specification:Michroma;letter-spacing:2.64583px;word-spacing:0.0105833px;fill:#ffffff;stroke:#ffffff;stroke-width:0.264583"
           aria-label="I" /><path
           d="M 152.39383,101.90109 V 84.96774 h 2.11667 v 16.93335 z"
           id="text9-1-2-8-8-9-2"
           style="font-size:22.5778px;font-family:Michroma;-inkscape-font-specification:Michroma;letter-spacing:2.64583px;word-spacing:0.0105833px;fill:#ffffff;stroke:#ffffff;stroke-width:0.264583"
           aria-label="I" /><path
           id="text10-2-6-6-9-7-1"
           style="font-size:22.5778px;font-family:Michroma;-inkscape-font-specification:Michroma;letter-spacing:2.64583px;word-spacing:0.0105833px;fill:#ffffff;stroke:#ffffff;stroke-width:0.264583"
           d="m 125.89473,84.96777 2.12235,1.82986 h 8.79223 c 1.31556,0 2.36689,0.0296 3.15329,0.0884 0.7864,0.0514 1.37769,0.17271 1.77457,0.3638 0.39688,0.19109 0.66146,0.48874 0.79375,0.89297 0.13229,0.40422 0.19844,0.95544 0.19844,1.65364 v 0.4408 c 0,0.61736 -0.0476,1.12098 -0.14314,1.51051 -0.0956,0.38952 -0.31604,0.69068 -0.66146,0.90382 -0.33808,0.21314 -0.87075,0.36397 -1.59835,0.45217 -0.72026,0.0808 -1.70894,0.12144 -2.96571,0.12144 h -9.35964 l -2.11667,-0.0202 v 8.69611 h 2.11667 V 95.055 h 9.69036 0.48525 c 0.16169,0 0.31603,-0.004 0.46302,-0.0109 l 3.60495,6.85694 h 2.11666 l -3.68246,-7.01146 c 1.16858,-0.16169 2.05052,-0.43729 2.64583,-0.82682 0.59532,-0.39687 0.99621,-0.91151 1.202,-1.54357 0.21313,-0.63942 0.31936,-1.4001 0.31936,-2.28204 v -0.4408 c 0,-0.95544 -0.0917,-1.74569 -0.27544,-2.37039 -0.18374,-0.62472 -0.53651,-1.11679 -1.05833,-1.47692 -0.52182,-0.36012 -1.29002,-0.61368 -2.30425,-0.76067 -1.00689,-0.147 -2.33681,-0.22066 -3.99046,-0.22066 z" /></g><g
         id="g15-0-5-8-6-4"
         transform="matrix(0.31486649,0,0,0.31486649,97.786913,116.08542)"
         style="fill:#ffffff;fill-opacity:1;stroke:#ffffff"><g
           id="g14-1-0-4-9-6"
           transform="matrix(0.62384296,0,0,0.62384296,43.977759,-4.0568482)"
           style="fill:#ffffff;fill-opacity:1;stroke:#ffffff"><path
             d="m 98.241888,217.76185 9.128132,16.93335 h -2.42535 l -8.113902,-15.43405 -8.11389,15.43405 h -2.39228 l 9.09506,-16.93335 z"
             id="text4-8-6-6-2-1-3-2"
             style="font-size:22.5778px;font-family:Michroma;-inkscape-font-specification:Michroma;letter-spacing:2.64583px;word-spacing:0.0105833px;fill:#ffffff;fill-opacity:1;stroke:#ffffff;stroke-width:0.264583"
             aria-label="V" /><path
             d="m 63.284412,234.6952 v -16.93335 h 2.116669 v 15.16946 H 78.80665 v 1.76389 z"
             id="text12-5-8-4-5-9"
             style="font-size:22.5778px;font-family:Michroma;-inkscape-font-specification:Michroma;letter-spacing:2.64583px;word-spacing:0.0105833px;fill:#ffffff;fill-opacity:1;stroke:#ffffff;stroke-width:0.264583"
             aria-label="L" /><path
             d="m 114.88797,234.6952 v -16.93335 h 13.49377 q 1.91823,0 3.14193,0.3638 1.23472,0.35278 1.81901,1.2678 0.59531,0.90399 0.59531,2.56867 0,1.4993 -0.69453,2.48047 -0.69453,0.98116 -2.12769,1.08038 1.87413,0.18741 2.70095,1.34497 0.82683,1.14653 0.82683,2.88837 0,1.51033 -0.35278,2.48047 -0.34175,0.97014 -1.15755,1.51033 -0.8158,0.52917 -2.21589,0.73863 -1.38907,0.20946 -3.47266,0.20946 z m 2.11667,-9.87779 h 9.86676 q 1.70877,0 2.80018,-0.12126 1.09141,-0.12127 1.62057,-0.71658 0.52917,-0.59532 0.52917,-2.01745 0,-1.11346 -0.3197,-1.6316 -0.30868,-0.51815 -1.05834,-0.66146 -0.74965,-0.14332 -2.06154,-0.14332 h -11.3771 z m 0,8.1139 h 10.44003 q 1.51033,0 2.49149,-0.0772 0.99219,-0.0772 1.55443,-0.37483 0.57327,-0.29765 0.80478,-0.93706 0.23151,-0.65044 0.23151,-1.78594 0,-1.16858 -0.44097,-1.81901 -0.42995,-0.65044 -1.21268,-0.93707 -0.7717,-0.28663 -1.79696,-0.35278 -1.02526,-0.0661 -2.20487,-0.0661 h -9.86676 z"
             id="text13-7-6-3-7-1"
             style="font-size:22.5778px;font-family:Michroma;-inkscape-font-specification:Michroma;letter-spacing:2.64583px;word-spacing:0.0105833px;fill:#ffffff;fill-opacity:1;stroke:#ffffff;stroke-width:0.264583"
             aria-label="B" /></g><path
           style="fill:#ffffff;fill-opacity:1;stroke:#ffffff;stroke-width:1.06067;stroke-dasharray:none;stroke-opacity:1"
           d="M 31.240433,137.07423 H 75.337655"
           id="path14-1-9-5-0-9-6-5" /><path
           style="fill:#ffffff;fill-opacity:1;stroke:#ffffff;stroke-width:1.11804;stroke-dasharray:none;stroke-opacity:1"
           d="m 136.09383,137.07423 h 48.99691"
           id="path14-1-4-2-8-6-0" /></g></g></g></svg>
